<svg xmlns="http://www.w3.org/2000/svg" viewBox="0 0 800 600" preserveAspectRatio="xMidYMid slice" role="img" aria-labelledby="t">
<title id="t">Ilustração da fachada da Kitnet Conforto em Jijoca de Jericoacoara, no fim de tarde, com rede na varanda</title>
<style>
@keyframes sway-a { from { transform: rotate(-1.8deg) } to { transform: rotate(2deg) } }
@keyframes sway-b { from { transform: rotate(1.6deg) } to { transform: rotate(-2.2deg) } }
@keyframes swing { from { transform: rotate(-1.5deg) } to { transform: rotate(1.5deg) } }
@keyframes glint { 0%, 100% { opacity: .25 } 50% { opacity: .9 } }
@keyframes wave { from { transform: translateX(-10px) } to { transform: translateX(12px) } }
@keyframes drift { from { transform: translateX(-30px) } to { transform: translateX(40px) } }
@keyframes twinkle { 0%, 100% { opacity: .25 } 50% { opacity: 1 } }
@keyframes glow { 0%, 100% { opacity: .75 } 50% { opacity: 1 } }
@keyframes fly { from { transform: translate(-260px, 30px) } to { transform: translate(1900px, -70px) } }
@keyframes flap { 0%, 100% { transform: scaleY(1) } 50% { transform: scaleY(.45) } }
@keyframes bob { 0%, 100% { transform: translate(0, 0) rotate(-4deg) } 50% { transform: translate(10px, -12px) rotate(5deg) } }
.sway-a { animation: sway-a 5.5s ease-in-out infinite alternate }
.sway-b { animation: sway-b 6.5s ease-in-out infinite alternate }
.hammock { animation: swing 4s ease-in-out infinite alternate }
.glint { animation: glint 3.2s ease-in-out infinite }
.wave { animation: wave 5s ease-in-out infinite alternate }
.cloud { animation: drift 38s ease-in-out infinite alternate }
.star { animation: twinkle 4s ease-in-out infinite }
.lamp { animation: glow 3.5s ease-in-out infinite }
.birds { animation: fly 46s linear infinite }
.bird { animation: flap .9s ease-in-out infinite; transform-box: fill-box; transform-origin: center }
.kite { animation: bob 7s ease-in-out infinite; transform-box: fill-box; transform-origin: 50% 100% }
@media (prefers-reduced-motion: reduce) { * { animation: none !important } }</style>
<defs>
<linearGradient id="sky-conforto" x1="0" y1="0" x2="0" y2="1"><stop offset="0" stop-color="#e9825a"/><stop offset=".55" stop-color="#f5ad73"/><stop offset="1" stop-color="#fde2b0"/></linearGradient>
<radialGradient id="glow-conforto"><stop offset="0" stop-color="#ffe2a6" stop-opacity="0.85"/><stop offset=".4" stop-color="#ffe2a6" stop-opacity="0.3"/><stop offset="1" stop-color="#ffe2a6" stop-opacity="0"/></radialGradient>
<linearGradient id="dune-conforto" x1="0" y1="0" x2="0" y2="1"><stop offset="0" stop-color="#f0ad7a"/><stop offset="1" stop-color="#d58c5d"/></linearGradient>
<linearGradient id="dune2-conforto" x1="0" y1="0" x2="0" y2="1"><stop offset="0" stop-color="#f6c290"/><stop offset="1" stop-color="#e4a06c"/></linearGradient>
<linearGradient id="lagoon-conforto" x1="0" y1="0" x2="0" y2="1"><stop offset="0" stop-color="#f3c496"/><stop offset="1" stop-color="#3aa8ac"/></linearGradient>
<linearGradient id="sand-conforto" x1="0" y1="0" x2="0" y2="1"><stop offset="0" stop-color="#f8d9a8"/><stop offset="1" stop-color="#e5b077"/></linearGradient>
<linearGradient id="wall-conforto" x1="0" y1="0" x2="1" y2="0"><stop offset="0" stop-color="#fcf0e2"/><stop offset="1" stop-color="#f0d9bf"/></linearGradient>
<linearGradient id="glass-conforto" x1="0" y1="0" x2="0" y2="1"><stop offset="0" stop-color="#ffecbd"/><stop offset="1" stop-color="#ffc978"/></linearGradient>
<radialGradient id="lamp-conforto"><stop offset="0" stop-color="#ffe3a0" stop-opacity=".95"/><stop offset=".35" stop-color="#ffcf7a" stop-opacity=".35"/><stop offset="1" stop-color="#ffcf7a" stop-opacity="0"/></radialGradient>
<pattern id="rede-conforto" width="28" height="10" patternUnits="userSpaceOnUse" patternTransform="rotate(90)"><rect x="0" width="7" height="10" fill="#d8473b"/><rect x="7" width="7" height="10" fill="#f2b134"/><rect x="14" width="7" height="10" fill="#1f8c8c"/><rect x="21" width="7" height="10" fill="#f6ead3"/></pattern>
</defs>
<rect width="800" height="440" fill="url(#sky-conforto)"/>

<circle cx="120" cy="318" r="260" fill="url(#glow-conforto)"/>
<circle cx="120" cy="318" r="40" fill="#fffbea"/>
<g class="cloud" fill="#fff1dc" opacity="0.6"><ellipse cx="250" cy="120" rx="90" ry="12"/><ellipse cx="224" cy="109" rx="40" ry="15"/><ellipse cx="268" cy="112" rx="34" ry="12"/></g><g class="cloud" fill="#fff1dc" opacity="0.6"><ellipse cx="560" cy="180" rx="72" ry="9.600000000000001"/><ellipse cx="539.2" cy="171.2" rx="32" ry="12"/><ellipse cx="574.4" cy="173.6" rx="27.200000000000003" ry="9.600000000000001"/></g><g class="cloud" fill="#fff1dc" opacity="0.6"><ellipse cx="90" cy="210" rx="62.99999999999999" ry="8.399999999999999"/><ellipse cx="71.8" cy="202.3" rx="28" ry="10.5"/><ellipse cx="102.6" cy="204.4" rx="23.799999999999997" ry="8.399999999999999"/></g>
<path d="M0,372 C90,330 180,300 290,306 C380,312 430,352 520,356 C600,360 660,318 740,312 C770,310 790,316 800,320 L800,440 L0,440Z" fill="url(#dune-conforto)"/>
<path d="M0,402 C120,380 230,372 330,384 C420,394 520,404 640,390 C720,382 770,386 800,392 L800,440 L0,440Z" fill="url(#dune2-conforto)"/>
<rect y="404" width="800" height="60" fill="url(#lagoon-conforto)"/>
<path class="wave" style="animation-delay:3.1s" d="M333.1,425.7q8.2 -1.8 16.5 0" stroke="#fff" stroke-width="1.3" fill="none" opacity="0.4" stroke-linecap="round"/><path class="wave" style="animation-delay:1.6s" d="M170.8,413.1q12.5 -1.8 25.1 0" stroke="#fff" stroke-width="1.3" fill="none" opacity="0.3" stroke-linecap="round"/><path class="wave" style="animation-delay:3.4s" d="M631.3,429.8q21.7 -1.8 43.5 0" stroke="#fff" stroke-width="1.3" fill="none" opacity="0.2" stroke-linecap="round"/><path class="wave" style="animation-delay:3s" d="M153.2,418.3q8.1 -1.8 16.3 0" stroke="#fff" stroke-width="1.3" fill="none" opacity="0.2" stroke-linecap="round"/><path class="wave" style="animation-delay:2.3s" d="M703,433.4q10.9 -1.8 21.8 0" stroke="#fff" stroke-width="1.3" fill="none" opacity="0.3" stroke-linecap="round"/><path class="wave" style="animation-delay:3.5s" d="M412.6,425.4q12.6 -1.8 25.2 0" stroke="#fff" stroke-width="1.3" fill="none" opacity="0.3" stroke-linecap="round"/><path class="wave" style="animation-delay:3.1s" d="M458.6,425.8q17.5 -1.8 35.1 0" stroke="#fff" stroke-width="1.3" fill="none" opacity="0.2" stroke-linecap="round"/><path class="wave" style="animation-delay:1.2s" d="M532.1,433q10.7 -1.8 21.4 0" stroke="#fff" stroke-width="1.3" fill="none" opacity="0.3" stroke-linecap="round"/><path class="wave" style="animation-delay:0.1s" d="M139.5,433.7q16.2 -1.8 32.3 0" stroke="#fff" stroke-width="1.3" fill="none" opacity="0.4" stroke-linecap="round"/><path class="wave" style="animation-delay:0.2s" d="M145.1,422.8q10.7 -1.8 21.5 0" stroke="#fff" stroke-width="1.3" fill="none" opacity="0.2" stroke-linecap="round"/><path class="wave" style="animation-delay:4.2s" d="M564.6,425.8q12 -1.8 24 0" stroke="#fff" stroke-width="1.3" fill="none" opacity="0.3" stroke-linecap="round"/><path class="wave" style="animation-delay:4s" d="M654.6,415.7q21.1 -1.8 42.1 0" stroke="#fff" stroke-width="1.3" fill="none" opacity="0.4" stroke-linecap="round"/><path class="wave" style="animation-delay:3.6s" d="M214.3,420.3q20.6 -1.8 41.2 0" stroke="#fff" stroke-width="1.3" fill="none" opacity="0.4" stroke-linecap="round"/><path class="wave" style="animation-delay:1.1s" d="M406.8,420.8q9 -1.8 18 0" stroke="#fff" stroke-width="1.3" fill="none" opacity="0.4" stroke-linecap="round"/><path class="wave" style="animation-delay:2.5s" d="M604.8,437.8q20 -1.8 40.1 0" stroke="#fff" stroke-width="1.3" fill="none" opacity="0.4" stroke-linecap="round"/><path class="wave" style="animation-delay:4.6s" d="M40.1,423q12.7 -1.8 25.4 0" stroke="#fff" stroke-width="1.3" fill="none" opacity="0.4" stroke-linecap="round"/>
<g class="palm">
<path d="M739.8,540L739.6,523.6L739.5,507.3L739.5,491L739.7,474.7L740,458.4L740.5,442.2L741.1,425.9L741.9,409.6L742.7,393.4L743.8,377.2L744.9,360.9L746.2,344.7L747.6,328.5L749.2,312.3L750.9,296.1L752.8,280L754.7,263.8L756.9,247.6L759.1,231.5L761.5,215.4L764.1,199.2L766.7,183.1L769.6,167L772.5,150.9L763.5,149.1L760.1,165.2L756.8,181.3L753.7,197.4L750.7,213.6L747.9,229.7L745.2,245.9L742.6,262.1L740.2,278.3L737.9,294.5L735.8,310.8L733.8,327.1L731.9,343.3L730.2,359.6L728.6,375.9L727.1,392.3L725.8,408.6L724.6,425L723.6,441.4L722.7,457.8L721.9,474.2L721.3,490.6L720.8,507.1L720.4,523.6L720.2,540Z" fill="#6d4a33"/>
<path d="M738.7,516.4L721.3,516.3M738.8,494.9L721.9,494.6M739,473.4L722.7,472.9M739.5,451.9L723.7,451.2M740.3,430.4L725,429.6M741.2,409L726.5,408M742.5,387.5L728.2,386.4M743.9,366.1L730.2,364.9M745.6,344.7L732.5,343.4M747.6,323.3L734.9,321.9M749.8,301.9L737.7,300.5M752.2,280.5L740.6,279M754.8,259.2L743.8,257.6M757.7,237.9L747.3,236.3M760.9,216.6L750.9,214.9M764.3,195.3L754.9,193.6M767.9,174L759,172.3" stroke="#4f3423" stroke-width="1.7" opacity=".5" fill="none"/>
<g class="crown sway-a" style="transform-origin:768px 150px">
<path d="M768,150Q669.8,110.5 604.3,275.3M768,150Q668.2,65.5 601.7,185.2M768,150Q692.1,31.4 641.6,95.5M768,150Q736.1,39.8 714.8,55.3M768,150Q768,75.4 768,68.1M768,150Q799.9,39.8 821.2,55.3M768,150Q843.9,31.4 894.4,95.5M768,150Q867.8,65.5 934.3,185.2M768,150Q866.2,110.5 931.7,275.3M768,150Q821,156.2 856.4,267.1M768,150Q715,156.2 679.6,267.1" stroke="#34583a" stroke-width="3" fill="none" stroke-linecap="round"/>
<path d="M763.1,148.1L734.3,176L755.9,145.8ZM763.1,148.1L721.3,151.7L755.9,145.8ZM754.9,145.5L726.1,176.4L747.5,143.8ZM754.9,145.5L711.5,152.3L747.5,143.8ZM746.7,143.7L718.6,177.2L739.2,142.7ZM746.7,143.7L702.5,153.7L739.2,142.7ZM738.6,142.6L711.9,178.3L731,142.3ZM738.6,142.6L694.4,155.9L731,142.3ZM730.6,142.3L705.7,179.8L723.1,142.7ZM730.6,142.3L687.2,158.6L723.1,142.7ZM722.7,142.7L700.1,181.4L715.2,143.9ZM722.7,142.7L680.7,161.8L715.2,143.9ZM714.9,144L694.8,183.2L707.6,145.8ZM714.9,144L674.9,165.3L707.6,145.8ZM707.2,146L689.7,185.1L700.1,148.6ZM707.2,146L669.7,169.1L700.1,148.6ZM699.6,148.8L684.7,187.1L692.7,152ZM699.6,148.8L665,173L692.7,152ZM692.1,152.4L679.7,189.4L685.5,156.2ZM692.1,152.4L660.6,177.1L685.5,156.2ZM684.6,156.8L674.5,191.9L678.4,161.2ZM684.6,156.8L656.4,181.4L678.4,161.2ZM677.3,162L669.3,194.8L671.5,166.8ZM677.3,162L652.4,185.9L671.5,166.8ZM670.2,168L663.8,198.2L664.7,173.3ZM670.2,168L648.4,190.8L664.7,173.3ZM663.1,174.8L658.2,202.1L658,180.4ZM663.1,174.8L644.4,196L658,180.4ZM656.2,182.5L652.5,206.6L651.4,188.3ZM656.2,182.5L640.3,201.8L651.4,188.3ZM649.4,190.9L646.6,211.8L644.9,197ZM649.4,190.9L636.2,208.1L644.9,197ZM642.8,200.1L640.6,217.9L638.6,206.4ZM642.8,200.1L632,215.1L638.6,206.4ZM636.3,210.1L634.5,224.9L632.4,216.6ZM636.3,210.1L627.7,222.8L632.4,216.6ZM629.9,220.9L628.4,234.3L626.2,227.5ZM629.9,220.9L622.5,232.6L626.2,227.5ZM623.6,232.4L622.5,245.5L620.2,239.2ZM623.6,232.4L616.7,244L620.2,239.2ZM617.5,244.8L616.6,257.5L614.3,251.7ZM617.5,244.8L611.1,256.2L614.3,251.7ZM611.6,257.9L610.9,270.3L608.6,264.9ZM611.6,257.9L605.5,269.1L608.6,264.9ZM762.4,145.4L725.4,169L756.4,140.7ZM762.4,145.4L718.2,131.6L756.4,140.7ZM754,139L716.1,165.2L747.8,134.7ZM754,139L706.8,128.3L747.8,134.7ZM745.8,133.4L707.6,162L739.3,129.5ZM745.8,133.4L696.4,126.1L739.3,129.5ZM737.7,128.6L699.8,159.2L730.9,125ZM737.7,128.6L687,124.8L730.9,125ZM729.7,124.4L692.9,156.9L722.7,121.4ZM729.7,124.4L678.6,124.4L722.7,121.4ZM721.8,121.1L686.7,155L714.6,118.6ZM721.8,121.1L671.2,124.6L714.6,118.6ZM714,118.4L681.2,153.4L706.7,116.6ZM714,118.4L664.8,125.5L706.7,116.6ZM706.4,116.5L676.3,152.1L698.9,115.4ZM706.4,116.5L659.2,126.7L698.9,115.4ZM698.8,115.4L671.8,151L691.2,115ZM698.8,115.4L654.4,128.4L691.2,115ZM691.3,114.9L667.6,150.1L683.7,115.3ZM691.3,114.9L650.2,130.2L683.7,115.3ZM683.9,115.3L663.6,149.4L676.4,116.5ZM683.9,115.3L646.5,132.2L676.4,116.5ZM676.6,116.4L659.6,148.9L669.3,118.4ZM676.6,116.4L643.2,134.4L669.3,118.4ZM669.4,118.4L655.4,148.7L662.3,121.1ZM669.4,118.4L640.1,136.7L662.3,121.1ZM662.3,121.1L651.1,148.9L655.5,124.5ZM662.3,121.1L637,139.1L655.5,124.5ZM655.2,124.6L646.4,149.6L648.8,128.7ZM655.2,124.6L633.9,141.8L648.8,128.7ZM648.3,129L641.5,150.8L642.3,133.5ZM648.3,129L630.7,144.8L642.3,133.5ZM641.5,134.1L636.3,152.8L635.9,139.2ZM641.5,134.1L627.2,148.2L635.9,139.2ZM634.9,140.1L630.8,155.5L629.6,145.5ZM634.9,140.1L623.6,152.3L629.6,145.5ZM628.3,146.9L625,160.9L623.4,152.6ZM628.3,146.9L618.6,158.3L623.4,152.6ZM621.9,154.4L619.2,168.2L617.4,160.5ZM621.9,154.4L613,165.9L617.4,160.5ZM615.7,162.8L613.4,176.3L611.4,169ZM615.7,162.8L607.4,174.3L611.4,169ZM609.6,171.9L607.7,185.1L605.6,178.4ZM609.6,171.9L601.9,183.3L605.6,178.4ZM763.6,143.2L723.1,158.9L759.3,136.9ZM763.6,143.2L754.9,97.8L759.3,136.9ZM757.2,133.8L715.1,151.3L752.8,127.7ZM757.2,133.8L740.5,88.3L752.8,127.7ZM750.9,125.2L707.8,144.2L746.3,119.2ZM750.9,125.2L726.1,81.6L746.3,119.2ZM744.8,117.2L701.2,137.7L740,111.3ZM744.8,117.2L712.6,77.5L740,111.3ZM738.7,109.9L695.4,131.6L733.7,104.2ZM738.7,109.9L700.7,75.4L733.7,104.2ZM732.8,103.3L690.3,126L727.5,97.8ZM732.8,103.3L690.6,74.7L727.5,97.8ZM727,97.3L685.9,120.8L721.4,92.2ZM727,97.3L682.4,74.7L721.4,92.2ZM721.2,92L682.2,116.1L715.4,87.2ZM721.2,92L675.9,75.3L715.4,87.2ZM715.6,87.4L679.1,111.8L709.4,83ZM715.6,87.4L670.7,76L709.4,83ZM710.1,83.4L676.5,107.9L703.6,79.5ZM710.1,83.4L666.8,76.9L703.6,79.5ZM704.6,80L674.3,104.4L697.8,76.7ZM704.6,80L663.8,77.8L697.8,76.7ZM699.3,77.3L672.5,101.2L692.2,74.7ZM699.3,77.3L661.6,78.7L692.2,74.7ZM694,75.2L670.9,98.3L686.6,73.4ZM694,75.2L660,79.6L686.6,73.4ZM688.8,73.8L669.3,95.6L681.3,72.9ZM688.8,73.8L658.7,80.5L681.3,72.9ZM683.6,73L667.7,93.3L676,73.1ZM683.6,73L657.7,81.3L676,73.1ZM678.5,72.9L665.8,91.2L670.9,74ZM678.5,72.9L656.7,82L670.9,74ZM673.3,73.5L663.5,89.6L666,75.6ZM673.3,73.5L655.6,82.7L666,75.6ZM668.2,74.8L660.7,88.4L661.3,77.8ZM668.2,74.8L654.2,83.6L661.3,77.8ZM663.2,76.8L657.1,89.6L656.7,80.7ZM663.2,76.8L651.2,85.8L656.7,80.7ZM658.2,79.6L653.1,92.5L652.2,84.2ZM658.2,79.6L647.3,89.2L652.2,84.2ZM653.4,83.2L649.1,96L647.8,88.3ZM653.4,83.2L643.3,93.2L647.8,88.3ZM648.6,87.5L645.1,100.2L643.4,93.1ZM648.6,87.5L639.4,97.8L643.4,93.1ZM766.3,144.3L733,149L764.2,137ZM766.3,144.3L796,127.9L764.2,137ZM763.7,135.4L728.7,140.8L761.4,128.2ZM763.7,135.4L794.6,117.6L761.4,128.2ZM761,127L724.9,133L758.7,119.8ZM761,127L792.6,107.8L758.7,119.8ZM758.4,119.1L721.7,125.6L756,111.9ZM758.4,119.1L790.1,98.6L756,111.9ZM755.9,111.6L719,118.6L753.4,104.5ZM755.9,111.6L787,89.8L753.4,104.5ZM753.4,104.6L716.9,112L750.7,97.5ZM753.4,104.6L783.3,81.5L750.7,97.5ZM751,98.1L715.2,105.8L748.2,91ZM751,98.1L779,73.7L748.2,91ZM748.6,92L714.1,99.9L745.6,85ZM748.6,92L774.1,66.4L745.6,85ZM746.2,86.5L713.3,94.4L743.1,79.5ZM746.2,86.5L768.3,59.5L743.1,79.5ZM743.9,81.3L712.9,89.2L740.6,74.5ZM743.9,81.3L761.5,53.1L740.6,74.5ZM741.7,76.7L712.9,84.5L738.1,70ZM741.7,76.7L753.5,47.5L738.1,70ZM739.5,72.5L713.2,80.1L735.7,66ZM739.5,72.5L743.9,43.3L735.7,66ZM737.4,68.7L713.7,76.1L733.2,62.4ZM737.4,68.7L733.1,41.6L733.2,62.4ZM735.4,65.4L714.3,72.4L730.8,59.4ZM735.4,65.4L723.5,43.5L730.8,59.4ZM733.4,62.6L715.1,69.2L728.4,56.9ZM733.4,62.6L717.4,47.3L728.4,56.9ZM731.5,60.1L715.9,66.2L726,54.9ZM731.5,60.1L714.8,50.7L726,54.9ZM729.7,58L716.7,63.7L723.6,53.5ZM729.7,58L714.2,53L723.6,53.5ZM728,56.2L717.4,61.4L721.2,52.8ZM728,56.2L714.6,54.2L721.2,52.8ZM726.2,54.7L716.9,60.4L718.9,52.7ZM726.2,54.7L713.9,55L718.9,52.7ZM724.3,53.5L716,60.5L716.8,53.2ZM724.3,53.5L712.6,56.1L716.8,53.2ZM722.3,52.8L715.2,60.9L714.9,54.3ZM722.3,52.8L711.4,57.3L714.9,54.3ZM720.1,52.6L714.3,61.6L713.2,55.8ZM720.1,52.6L710.4,58.7L713.2,55.8ZM768,147.4L746.6,143.9L768,139.8ZM768,147.4L789.4,143.9L768,139.8ZM768,141.3L745.6,137.8L768,133.7ZM768,141.3L790.4,137.8L768,133.7ZM768,135.5L744.8,131.9L768,127.9ZM768,135.5L791.2,131.9L768,127.9ZM768,129.9L744.3,126.3L768,122.3ZM768,129.9L791.7,126.3L768,122.3ZM768,124.5L744.2,121L768,116.9ZM768,124.5L791.8,121L768,116.9ZM768,119.4L744.4,115.9L768,111.9ZM768,119.4L791.6,115.9L768,111.9ZM768,114.6L744.9,111.1L768,107ZM768,114.6L791.1,111.1L768,107ZM768,110L745.6,106.5L768,102.4ZM768,110L790.4,106.5L768,102.4ZM768,105.7L746.6,102.1L768,98.1ZM768,105.7L789.4,102.1L768,98.1ZM768,101.6L747.9,98L768,94ZM768,101.6L788.1,98L768,94ZM768,97.8L749.3,94.2L768,90.2ZM768,97.8L786.7,94.2L768,90.2ZM768,94.3L750.9,90.6L768,86.7ZM768,94.3L785.1,90.6L768,86.7ZM768,91L752.6,87.3L768,83.4ZM768,91L783.4,87.3L768,83.4ZM768,87.9L754.4,84.2L768,80.3ZM768,87.9L781.6,84.2L768,80.3ZM768,85.1L756.2,81.4L768,77.5ZM768,85.1L779.8,81.4L768,77.5ZM768,82.6L758,78.9L768,75ZM768,82.6L778,78.9L768,75ZM768,80.3L759.9,76.6L768,72.7ZM768,80.3L776.1,76.6L768,72.7ZM768,78.2L761.6,74.5L768,70.7ZM768,78.2L774.4,74.5L768,70.7ZM768,76.5L762.4,72.7L768,68.9ZM768,76.5L773.6,72.7L768,68.9ZM768,74.9L762.6,71.2L768,67.3ZM768,74.9L773.4,71.2L768,67.3ZM768,73.7L762.8,69.9L768,66.1ZM768,73.7L773.2,69.9L768,66.1ZM768,72.7L763,68.9L768,65.1ZM768,72.7L773,68.9L768,65.1ZM769.7,144.3L740,127.9L771.8,137ZM769.7,144.3L803,149L771.8,137ZM772.3,135.4L741.4,117.6L774.6,128.2ZM772.3,135.4L807.3,140.8L774.6,128.2ZM775,127L743.4,107.8L777.3,119.8ZM775,127L811.1,133L777.3,119.8ZM777.6,119.1L745.9,98.6L780,111.9ZM777.6,119.1L814.3,125.6L780,111.9ZM780.1,111.6L749,89.8L782.6,104.5ZM780.1,111.6L817,118.6L782.6,104.5ZM782.6,104.6L752.7,81.5L785.3,97.5ZM782.6,104.6L819.1,112L785.3,97.5ZM785,98.1L757,73.7L787.8,91ZM785,98.1L820.8,105.8L787.8,91ZM787.4,92L761.9,66.4L790.4,85ZM787.4,92L821.9,99.9L790.4,85ZM789.8,86.5L767.7,59.5L792.9,79.5ZM789.8,86.5L822.7,94.4L792.9,79.5ZM792.1,81.3L774.5,53.1L795.4,74.5ZM792.1,81.3L823.1,89.2L795.4,74.5ZM794.3,76.7L782.5,47.5L797.9,70ZM794.3,76.7L823.1,84.5L797.9,70ZM796.5,72.5L792.1,43.3L800.3,66ZM796.5,72.5L822.8,80.1L800.3,66ZM798.6,68.7L802.9,41.6L802.8,62.4ZM798.6,68.7L822.3,76.1L802.8,62.4ZM800.6,65.4L812.5,43.5L805.2,59.4ZM800.6,65.4L821.7,72.4L805.2,59.4ZM802.6,62.6L818.6,47.3L807.6,56.9ZM802.6,62.6L820.9,69.2L807.6,56.9ZM804.5,60.1L821.2,50.7L810,54.9ZM804.5,60.1L820.1,66.2L810,54.9ZM806.3,58L821.8,53L812.4,53.5ZM806.3,58L819.3,63.7L812.4,53.5ZM808,56.2L821.4,54.2L814.8,52.8ZM808,56.2L818.6,61.4L814.8,52.8ZM809.8,54.7L822.1,55L817.1,52.7ZM809.8,54.7L819.1,60.4L817.1,52.7ZM811.7,53.5L823.4,56.1L819.2,53.2ZM811.7,53.5L820,60.5L819.2,53.2ZM813.7,52.8L824.6,57.3L821.1,54.3ZM813.7,52.8L820.8,60.9L821.1,54.3ZM815.9,52.6L825.6,58.7L822.8,55.8ZM815.9,52.6L821.7,61.6L822.8,55.8ZM772.4,143.2L781.1,97.8L776.7,136.9ZM772.4,143.2L812.9,158.9L776.7,136.9ZM778.8,133.8L795.5,88.3L783.2,127.7ZM778.8,133.8L820.9,151.3L783.2,127.7ZM785.1,125.2L809.9,81.6L789.7,119.2ZM785.1,125.2L828.2,144.2L789.7,119.2ZM791.2,117.2L823.4,77.5L796,111.3ZM791.2,117.2L834.8,137.7L796,111.3ZM797.3,109.9L835.3,75.4L802.3,104.2ZM797.3,109.9L840.6,131.6L802.3,104.2ZM803.2,103.3L845.4,74.7L808.5,97.8ZM803.2,103.3L845.7,126L808.5,97.8ZM809,97.3L853.6,74.7L814.6,92.2ZM809,97.3L850.1,120.8L814.6,92.2ZM814.8,92L860.1,75.3L820.6,87.2ZM814.8,92L853.8,116.1L820.6,87.2ZM820.4,87.4L865.3,76L826.6,83ZM820.4,87.4L856.9,111.8L826.6,83ZM825.9,83.4L869.2,76.9L832.4,79.5ZM825.9,83.4L859.5,107.9L832.4,79.5ZM831.4,80L872.2,77.8L838.2,76.7ZM831.4,80L861.7,104.4L838.2,76.7ZM836.7,77.3L874.4,78.7L843.8,74.7ZM836.7,77.3L863.5,101.2L843.8,74.7ZM842,75.2L876,79.6L849.4,73.4ZM842,75.2L865.1,98.3L849.4,73.4ZM847.2,73.8L877.3,80.5L854.7,72.9ZM847.2,73.8L866.7,95.6L854.7,72.9ZM852.4,73L878.3,81.3L860,73.1ZM852.4,73L868.3,93.3L860,73.1ZM857.5,72.9L879.3,82L865.1,74ZM857.5,72.9L870.2,91.2L865.1,74ZM862.7,73.5L880.4,82.7L870,75.6ZM862.7,73.5L872.5,89.6L870,75.6ZM867.8,74.8L881.8,83.6L874.7,77.8ZM867.8,74.8L875.3,88.4L874.7,77.8ZM872.8,76.8L884.8,85.8L879.3,80.7ZM872.8,76.8L878.9,89.6L879.3,80.7ZM877.8,79.6L888.7,89.2L883.8,84.2ZM877.8,79.6L882.9,92.5L883.8,84.2ZM882.6,83.2L892.7,93.2L888.2,88.3ZM882.6,83.2L886.9,96L888.2,88.3ZM887.4,87.5L896.6,97.8L892.6,93.1ZM887.4,87.5L890.9,100.2L892.6,93.1ZM773.6,145.4L817.8,131.6L779.6,140.7ZM773.6,145.4L810.6,169L779.6,140.7ZM782,139L829.2,128.3L788.2,134.7ZM782,139L819.9,165.2L788.2,134.7ZM790.2,133.4L839.6,126.1L796.7,129.5ZM790.2,133.4L828.4,162L796.7,129.5ZM798.3,128.6L849,124.8L805.1,125ZM798.3,128.6L836.2,159.2L805.1,125ZM806.3,124.4L857.4,124.4L813.3,121.4ZM806.3,124.4L843.1,156.9L813.3,121.4ZM814.2,121.1L864.8,124.6L821.4,118.6ZM814.2,121.1L849.3,155L821.4,118.6ZM822,118.4L871.2,125.5L829.3,116.6ZM822,118.4L854.8,153.4L829.3,116.6ZM829.6,116.5L876.8,126.7L837.1,115.4ZM829.6,116.5L859.7,152.1L837.1,115.4ZM837.2,115.4L881.6,128.4L844.8,115ZM837.2,115.4L864.2,151L844.8,115ZM844.7,114.9L885.8,130.2L852.3,115.3ZM844.7,114.9L868.4,150.1L852.3,115.3ZM852.1,115.3L889.5,132.2L859.6,116.5ZM852.1,115.3L872.4,149.4L859.6,116.5ZM859.4,116.4L892.8,134.4L866.7,118.4ZM859.4,116.4L876.4,148.9L866.7,118.4ZM866.6,118.4L895.9,136.7L873.7,121.1ZM866.6,118.4L880.6,148.7L873.7,121.1ZM873.7,121.1L899,139.1L880.5,124.5ZM873.7,121.1L884.9,148.9L880.5,124.5ZM880.8,124.6L902.1,141.8L887.2,128.7ZM880.8,124.6L889.6,149.6L887.2,128.7ZM887.7,129L905.3,144.8L893.7,133.5ZM887.7,129L894.5,150.8L893.7,133.5ZM894.5,134.1L908.8,148.2L900.1,139.2ZM894.5,134.1L899.7,152.8L900.1,139.2ZM901.1,140.1L912.4,152.3L906.4,145.5ZM901.1,140.1L905.2,155.5L906.4,145.5ZM907.7,146.9L917.4,158.3L912.6,152.6ZM907.7,146.9L911,160.9L912.6,152.6ZM914.1,154.4L923,165.9L918.6,160.5ZM914.1,154.4L916.8,168.2L918.6,160.5ZM920.3,162.8L928.6,174.3L924.6,169ZM920.3,162.8L922.6,176.3L924.6,169ZM926.4,171.9L934.1,183.3L930.4,178.4ZM926.4,171.9L928.3,185.1L930.4,178.4ZM772.9,148.1L814.7,151.7L780.1,145.8ZM772.9,148.1L801.7,176L780.1,145.8ZM781.1,145.5L824.5,152.3L788.5,143.8ZM781.1,145.5L809.9,176.4L788.5,143.8ZM789.3,143.7L833.5,153.7L796.8,142.7ZM789.3,143.7L817.4,177.2L796.8,142.7ZM797.4,142.6L841.6,155.9L805,142.3ZM797.4,142.6L824.1,178.3L805,142.3ZM805.4,142.3L848.8,158.6L812.9,142.7ZM805.4,142.3L830.3,179.8L812.9,142.7ZM813.3,142.7L855.3,161.8L820.8,143.9ZM813.3,142.7L835.9,181.4L820.8,143.9ZM821.1,144L861.1,165.3L828.4,145.8ZM821.1,144L841.2,183.2L828.4,145.8ZM828.8,146L866.3,169.1L835.9,148.6ZM828.8,146L846.3,185.1L835.9,148.6ZM836.4,148.8L871,173L843.3,152ZM836.4,148.8L851.3,187.1L843.3,152ZM843.9,152.4L875.4,177.1L850.5,156.2ZM843.9,152.4L856.3,189.4L850.5,156.2ZM851.4,156.8L879.6,181.4L857.6,161.2ZM851.4,156.8L861.5,191.9L857.6,161.2ZM858.7,162L883.6,185.9L864.5,166.8ZM858.7,162L866.7,194.8L864.5,166.8ZM865.8,168L887.6,190.8L871.3,173.3ZM865.8,168L872.2,198.2L871.3,173.3ZM872.9,174.8L891.6,196L878,180.4ZM872.9,174.8L877.8,202.1L878,180.4ZM879.8,182.5L895.7,201.8L884.6,188.3ZM879.8,182.5L883.5,206.6L884.6,188.3ZM886.6,190.9L899.8,208.1L891.1,197ZM886.6,190.9L889.4,211.8L891.1,197ZM893.2,200.1L904,215.1L897.4,206.4ZM893.2,200.1L895.4,217.9L897.4,206.4ZM899.7,210.1L908.3,222.8L903.6,216.6ZM899.7,210.1L901.5,224.9L903.6,216.6ZM906.1,220.9L913.5,232.6L909.8,227.5ZM906.1,220.9L907.6,234.3L909.8,227.5ZM912.4,232.4L919.3,244L915.8,239.2ZM912.4,232.4L913.5,245.5L915.8,239.2ZM918.5,244.8L924.9,256.2L921.7,251.7ZM918.5,244.8L919.4,257.5L921.7,251.7ZM924.4,257.9L930.5,269.1L927.4,264.9ZM924.4,257.9L925.1,270.3L927.4,264.9ZM768.9,150L793.4,161.6L776.3,151.5ZM768.9,150L782.5,172.1L776.3,151.5ZM773.5,150.8L798.3,164.5L780.7,152.9ZM773.5,150.8L786.4,174.7L780.7,152.9ZM778,152L802.8,167.5L785.1,154.8ZM778,152L790.1,177.5L785.1,154.8ZM782.5,153.7L806.9,170.8L789.3,157ZM782.5,153.7L793.5,180.2L789.3,157ZM787,155.7L810.6,174.1L793.5,159.6ZM787,155.7L796.8,183L793.5,159.6ZM791.3,158.2L813.9,177.5L797.6,162.5ZM791.3,158.2L800,185.7L797.6,162.5ZM795.7,161.1L817,181L801.6,165.8ZM795.7,161.1L803.1,188.5L801.6,165.8ZM799.9,164.4L819.9,184.6L805.6,169.5ZM799.9,164.4L806.2,191.3L805.6,169.5ZM804.1,168.2L822.6,188.3L809.4,173.6ZM804.1,168.2L809.4,194.2L809.4,173.6ZM808.3,172.3L825.2,192L813.3,178ZM808.3,172.3L812.6,197.2L813.3,178ZM812.3,176.9L827.6,195.9L817,182.8ZM812.3,176.9L815.8,200.4L817,182.8ZM816.3,181.9L830,199.9L820.7,188ZM816.3,181.9L819.1,203.8L820.7,188ZM820.2,187.3L832.3,204.1L824.4,193.6ZM820.2,187.3L822.4,207.4L824.4,193.6ZM824,193.1L834.6,208.6L828,199.6ZM824,193.1L825.8,211.3L828,199.6ZM827.8,199.3L836.9,213.4L831.5,205.9ZM827.8,199.3L829.2,215.6L831.5,205.9ZM831.5,205.9L839.1,218.5L835,212.6ZM831.5,205.9L832.7,220.2L835,212.6ZM835.1,212.9L841.5,224L838.4,219.8ZM835.1,212.9L836.1,225.3L838.4,219.8ZM838.6,220.3L843.8,229.8L841.7,227.3ZM838.6,220.3L839.6,230.8L841.7,227.3ZM842.1,228.2L846.6,237L845,235.2ZM842.1,228.2L843,237.8L845,235.2ZM845.5,236.4L849.8,245.1L848.2,243.5ZM845.5,236.4L846.2,245.8L848.2,243.5ZM848.8,245L852.8,253.6L851.4,252.1ZM848.8,245L849.4,254.2L851.4,252.1ZM852.1,254L855.9,262.5L854.5,261.2ZM852.1,254L852.6,263.1L854.5,261.2ZM767.1,150L753.5,172.1L759.7,151.5ZM767.1,150L742.6,161.6L759.7,151.5ZM762.5,150.8L749.6,174.7L755.3,152.9ZM762.5,150.8L737.7,164.5L755.3,152.9ZM758,152L745.9,177.5L750.9,154.8ZM758,152L733.2,167.5L750.9,154.8ZM753.5,153.7L742.5,180.2L746.7,157ZM753.5,153.7L729.1,170.8L746.7,157ZM749,155.7L739.2,183L742.5,159.6ZM749,155.7L725.4,174.1L742.5,159.6ZM744.7,158.2L736,185.7L738.4,162.5ZM744.7,158.2L722.1,177.5L738.4,162.5ZM740.3,161.1L732.9,188.5L734.4,165.8ZM740.3,161.1L719,181L734.4,165.8ZM736.1,164.4L729.8,191.3L730.4,169.5ZM736.1,164.4L716.1,184.6L730.4,169.5ZM731.9,168.2L726.6,194.2L726.6,173.6ZM731.9,168.2L713.4,188.3L726.6,173.6ZM727.7,172.3L723.4,197.2L722.7,178ZM727.7,172.3L710.8,192L722.7,178ZM723.7,176.9L720.2,200.4L719,182.8ZM723.7,176.9L708.4,195.9L719,182.8ZM719.7,181.9L716.9,203.8L715.3,188ZM719.7,181.9L706,199.9L715.3,188ZM715.8,187.3L713.6,207.4L711.6,193.6ZM715.8,187.3L703.7,204.1L711.6,193.6ZM712,193.1L710.2,211.3L708,199.6ZM712,193.1L701.4,208.6L708,199.6ZM708.2,199.3L706.8,215.6L704.5,205.9ZM708.2,199.3L699.1,213.4L704.5,205.9ZM704.5,205.9L703.3,220.2L701,212.6ZM704.5,205.9L696.9,218.5L701,212.6ZM700.9,212.9L699.9,225.3L697.6,219.8ZM700.9,212.9L694.5,224L697.6,219.8ZM697.4,220.3L696.4,230.8L694.3,227.3ZM697.4,220.3L692.2,229.8L694.3,227.3ZM693.9,228.2L693,237.8L691,235.2ZM693.9,228.2L689.4,237L691,235.2ZM690.5,236.4L689.8,245.8L687.8,243.5ZM690.5,236.4L686.2,245.1L687.8,243.5ZM687.2,245L686.6,254.2L684.6,252.1ZM687.2,245L683.2,253.6L684.6,252.1ZM683.9,254L683.4,263.1L681.5,261.2ZM683.9,254L680.1,262.5L681.5,261.2Z" fill="#34583a"/>
<g fill="#4a3020"><circle cx="762.3" cy="158.1" r="5.8"/><circle cx="773.8" cy="159.2" r="5.8"/><circle cx="768" cy="163.8" r="5.8"/></g>
</g>
</g>
<path d="M0,440 C200,428 600,428 800,440 L800,600 L0,600Z" fill="url(#sand-conforto)"/>
<path d="M0,440 C200,428 600,428 800,440" stroke="#b27a4f" stroke-width="2.5" fill="none" opacity=".35"/>
<path d="M142,500 L658,500 L740,532 L210,532Z" fill="#b27a4f" opacity=".25"/>
<rect x="150" y="250" width="500" height="242" fill="url(#wall-conforto)"/>
<rect x="506" y="250" width="144" height="242" fill="#7b5236"/>
<rect x="512" y="250" width="5.2" height="242" fill="#9a6843"/><rect x="520.6" y="250" width="5.2" height="242" fill="#9a6843"/><rect x="529.2" y="250" width="5.2" height="242" fill="#9a6843"/><rect x="537.8" y="250" width="5.2" height="242" fill="#9a6843"/><rect x="546.4" y="250" width="5.2" height="242" fill="#9a6843"/><rect x="555" y="250" width="5.2" height="242" fill="#9a6843"/><rect x="563.6" y="250" width="5.2" height="242" fill="#9a6843"/><rect x="572.2" y="250" width="5.2" height="242" fill="#9a6843"/><rect x="580.8" y="250" width="5.2" height="242" fill="#9a6843"/><rect x="589.4" y="250" width="5.2" height="242" fill="#9a6843"/><rect x="598" y="250" width="5.2" height="242" fill="#9a6843"/><rect x="606.6" y="250" width="5.2" height="242" fill="#9a6843"/><rect x="615.2" y="250" width="5.2" height="242" fill="#9a6843"/>
<g class="hammock" style="transform-origin:570px 312px">
<path d="M510,312L529.2,322.5M630,312L610.8,322.5" stroke="#4a2f1f" stroke-width="1.6" fill="none"/>
<path d="M529.2,322.5Q570,382.5 610.8,322.5Q570,412.5 529.2,322.5Z" fill="url(#rede-conforto)"/>
<path d="M536,335.2l0 9M542.8,346.5l0 7M549.6,355.3l0 9M556.4,361.5l0 7M563.2,365.3l0 9M570,366.5l0 7M576.8,365.3l0 9M583.6,361.5l0 7M590.4,355.3l0 9M597.2,346.5l0 7M604,335.3l0 9" stroke="#f6e3bd" stroke-width="1.3" fill="none" opacity=".9"/>
</g>
<circle cx="177.9" cy="288.1" r="19.9" fill="#c42f6c"/><circle cx="158.6" cy="280.1" r="18.1" fill="#e0508b"/><circle cx="181.8" cy="289.6" r="12.4" fill="#2f6b4a"/><circle cx="169.1" cy="280.5" r="16" fill="#d93f7c"/><circle cx="146.1" cy="277.6" r="17" fill="#b92a63"/><circle cx="138.1" cy="293.8" r="21" fill="#c42f6c"/><circle cx="175.3" cy="292.7" r="15.2" fill="#e0508b"/><circle cx="158.5" cy="294.9" r="16.6" fill="#2f6b4a"/><circle cx="134.2" cy="288.8" r="15.6" fill="#d93f7c"/><circle cx="127.1" cy="280.1" r="14" fill="#b92a63"/><circle cx="126.7" cy="284.5" r="17.9" fill="#c42f6c"/><circle cx="155.9" cy="282.3" r="14.5" fill="#e0508b"/><circle cx="169.6" cy="289.3" r="18.9" fill="#2f6b4a"/><circle cx="136" cy="295.5" r="21" fill="#d93f7c"/><circle cx="158.7" cy="293.8" r="23.1" fill="#b92a63"/><circle cx="169.3" cy="294.6" r="12.2" fill="#c42f6c"/>
<circle cx="164.4" cy="328.7" r="15.8" fill="#e0508b"/><circle cx="167.3" cy="333.2" r="12.8" fill="#2f6b4a"/><circle cx="150.2" cy="325.9" r="15.9" fill="#c42f6c"/><circle cx="158.8" cy="332" r="16" fill="#e0508b"/><circle cx="170.6" cy="331" r="9.9" fill="#2f6b4a"/><circle cx="160" cy="324.9" r="13.6" fill="#c42f6c"/><circle cx="138.6" cy="328.4" r="15.6" fill="#e0508b"/><circle cx="140.6" cy="326.4" r="8.4" fill="#2f6b4a"/><circle cx="149.9" cy="335" r="9.8" fill="#c42f6c"/><circle cx="172.2" cy="327.4" r="8.3" fill="#e0508b"/>
<rect x="188" y="330" width="87" height="162" fill="#d9c7b0"/>
<rect x="194" y="336" width="75" height="156" fill="#c2653f"/>
<rect x="204" y="348" width="22" height="132" rx="2" fill="#cf7652"/>
<rect x="237" y="348" width="22" height="132" rx="2" fill="#cf7652"/>
<circle cx="258" cy="420" r="3.6" fill="#f5d58f"/>
<rect x="214" y="272" width="36" height="18" rx="3" fill="#13304a"/>
<text x="232" y="285" font-size="11" font-family="Georgia, serif" fill="#f3e2c7" text-anchor="middle" letter-spacing="1.5">02</text>
<circle class="lamp" cx="231" cy="312" r="46" fill="url(#lamp-conforto)"/><rect x="226" y="306" width="10" height="15" rx="2" fill="#13304a"/><rect x="228" y="314" width="6" height="5" fill="#fff1c4"/>

<rect x="303" y="301" width="182" height="126" fill="#13304a"/>
<rect x="308" y="306" width="172" height="116" fill="url(#glass-conforto)"/>
<path d="M338,422 l14 -34 h60 l14 34z" fill="#8a5a3c" opacity=".35"/><rect x="426" y="322" width="4" height="60" fill="#6b4a33" opacity=".45"/><circle cx="428" cy="322" r="14" fill="#fff4d0" opacity=".7"/>

<path d="M308,306 q16 52.2 4 116 h-4z" fill="#f7d9b0" opacity=".95"/><path d="M480,306 q-16 52.2 -4 116 h4z" fill="#f7d9b0" opacity=".95"/>
<rect x="392" y="306" width="4" height="116" fill="#13304a"/>
<rect x="298" y="426" width="192" height="6" fill="#e2d3c0"/>

<rect x="134" y="226" width="532" height="28" fill="#13304a"/>
<rect x="134" y="226" width="532" height="3" fill="#ffc98a" opacity="0.95"/>
<rect x="146" y="486" width="508" height="12" fill="#cdb193"/>
<ellipse cx="394" cy="518" rx="120" ry="16" fill="#ffd58a" opacity="0.22"/><ellipse cx="231" cy="510" rx="60" ry="10" fill="#ffd58a" opacity="0.22"/>
<ellipse cx="225" cy="512" rx="26" ry="6" fill="#e7dccd" opacity=".9"/><ellipse cx="239" cy="536" rx="31" ry="7.6" fill="#e7dccd" opacity=".9"/><ellipse cx="225" cy="560" rx="36" ry="9.2" fill="#e7dccd" opacity=".9"/><ellipse cx="239" cy="584" rx="41" ry="10.8" fill="#e7dccd" opacity=".9"/>

<circle cx="177.7" cy="448.2" r="9.5" fill="#2f6b4a"/><circle cx="175" cy="458.7" r="12.7" fill="#3d8058"/><circle cx="179" cy="453" r="15.3" fill="#275d40"/><circle cx="159" cy="448.1" r="13.9" fill="#2f6b4a"/><circle cx="176.6" cy="459.8" r="11.6" fill="#3d8058"/><circle cx="161.9" cy="446.3" r="10.1" fill="#275d40"/><circle cx="180.4" cy="448.9" r="9.8" fill="#2f6b4a"/><circle cx="150.4" cy="447.9" r="9.4" fill="#3d8058"/><circle cx="160.7" cy="458.1" r="11.6" fill="#275d40"/>
<path d="M154,492 l4 -36 h24 l4 36z" fill="#c0643c"/><rect x="152" y="453" width="36" height="6" rx="2" fill="#c0643c"/>

<circle cx="505.1" cy="466" r="13.3" fill="#2f6b4a"/><circle cx="491.8" cy="457.7" r="8.3" fill="#3d8058"/><circle cx="483.8" cy="451.9" r="15.9" fill="#275d40"/><circle cx="492.2" cy="451.7" r="10.9" fill="#2f6b4a"/><circle cx="484.5" cy="465.2" r="11.5" fill="#3d8058"/><circle cx="515.6" cy="456.3" r="11.7" fill="#275d40"/><circle cx="500.2" cy="463" r="16" fill="#2f6b4a"/><circle cx="522.2" cy="461.9" r="15.7" fill="#3d8058"/><circle cx="518.4" cy="450.9" r="13.6" fill="#275d40"/>
<path d="M488,492 l4 -30 h24 l4 30z" fill="#b8583a"/><rect x="486" y="459" width="36" height="6" rx="2" fill="#b8583a"/>
<path d="M27.9,560Q31.6,550.3 34.7,543.9Q32,551.9 31.1,560ZM30.9,560Q32.1,550.1 31.5,543.4Q33.2,551.7 34.1,560ZM33.9,560Q38,546.9 41.7,538.1Q38.3,549.1 37.1,560ZM36.9,560Q38.4,549.4 38.2,542.3Q39.4,551.1 40.1,560ZM39.9,560Q39.3,546.3 36,537.2Q40.8,548.6 43.1,560ZM42.9,560Q41.6,550 37.4,543.3Q43.4,551.7 46.1,560ZM45.9,560Q49.5,546.9 52.5,538.2Q50,549.1 49.1,560Z" fill="#3d7a50"/><path d="M747.9,572Q753.2,561 758.7,553.6Q753.2,562.8 751.1,572ZM750.9,572Q750.1,562.8 746.5,556.6Q751.7,564.3 754.1,572ZM753.9,572Q753.2,559.7 749.8,551.5Q754.8,561.7 757.1,572ZM756.9,572Q754.8,556.3 749.4,545.9Q756.8,559 760.1,572ZM759.9,572Q762.6,558.4 764.1,549.3Q763.3,560.7 763.1,572ZM762.9,572Q766.8,560.7 770.3,553.2Q767.2,562.6 766.1,572ZM765.9,572Q769.5,557.1 772.5,547.1Q770,559.5 769.1,572Z" fill="#3d7a50"/><path d="M667.9,520Q670.7,509.3 672.6,502.2Q671.4,511.1 671.1,520ZM670.9,520Q670.7,510.2 668,503.6Q672.1,511.8 674.1,520ZM673.9,520Q672.8,510.3 668.8,503.9Q674.5,511.9 677.1,520ZM676.9,520Q679.9,511 682.1,505.1Q680.6,512.5 680.1,520ZM679.9,520Q684.1,512.3 688.1,507.1Q684.5,513.6 683.1,520ZM682.9,520Q686.3,509.5 689,502.5Q686.9,511.3 686.1,520ZM685.9,520Q688.5,513.4 690.1,509.1Q689.3,514.5 689.1,520Z" fill="#3d7a50"/>
</svg>